# xmcd CD database file
#
# Track frame offsets:
#	150
#	27540
#	50570
#	76465
#	96190
#	122512
#	146325
#
# Disc length: 2214 seconds
#
# Revision: 0
# Processed by: cddbd v1.5PL3 Copyright (c) Steve Scherf et al.
# Submitted via: CDex 1.51
#
DISCID=5808a407
DTITLE=Tete Montoliu - Piano For Nuria
DYEAR=1968
DGENRE=Jazz
TTITLE0=Blues For Nuria
TTITLE1=Tranquillogy
TTITLE2=Alone Together
TTITLE3=Speak Low
TTITLE4=Visca L'ampurda
TTITLE5=I Surrender, Dear
TTITLE6=Stable Mates
EXTD=YEAR: 1968
EXTT0=
EXTT1=
EXTT2=
EXTT3=
EXTT4=
EXTT5=
EXTT6=
PLAYORDER=
